<svg width="24" height="24" viewBox="0 0 24 24" fill="none" xmlns="http://www.w3.org/2000/svg">
<g clip-path="url(#clip0_590_5600)">
<path d="M23.9288 9.17879C23.7245 8.54934 23.1121 8.11668 22.2497 7.99101L16.3072 7.12691L14.6597 3.7891C14.4721 3.40885 14.0119 3.25243 13.6313 3.44049C13.2507 3.62855 13.0946 4.08868 13.2823 4.46931L15.1082 8.16947C15.2201 8.39578 15.436 8.55305 15.6865 8.58966L22.0288 9.51198C22.3267 9.55524 22.4494 9.63971 22.4648 9.63427C22.4639 9.66924 22.4128 9.81568 22.1965 10.0266L17.6064 14.5005C17.4259 14.6774 17.3431 14.9311 17.3859 15.1808L18.4697 21.4989C18.5204 21.7964 18.4755 21.9449 18.4876 21.9504C18.4543 21.9603 18.3008 21.9579 18.0341 21.8185L12.3574 18.8331C12.134 18.7158 11.8665 18.7153 11.6423 18.8331L8.01746 20.7393C7.64222 20.9365 7.49785 21.4012 7.69547 21.7765C7.89268 22.1514 8.35698 22.2965 8.73264 22.0985L12.0001 20.3803L17.3199 23.1781C17.713 23.3845 18.1008 23.4876 18.4565 23.4876C18.7984 23.4876 19.1117 23.3924 19.373 23.2023C19.9076 22.8133 20.1306 22.0977 19.9833 21.239L18.9681 15.3189L23.2681 11.1262C23.8925 10.518 24.1334 9.80823 23.9288 9.17879Z" fill="#0D4047"/>
<path d="M5.96797 21.8185C5.70214 21.9583 5.54736 21.9612 5.54652 21.9741C5.52655 21.9454 5.48122 21.7968 5.53194 21.4998L6.61527 15.1812C6.65812 14.9316 6.57534 14.6778 6.39435 14.501L1.80431 10.027C1.58672 9.81483 1.54139 9.67876 1.52391 9.67215C1.54514 9.64426 1.67241 9.55524 1.97157 9.51197L8.31474 8.58965C8.56477 8.55304 8.7811 8.3962 8.89299 8.16946L11.7303 2.42081C11.8639 2.15081 11.9874 2.05762 11.9808 2.04637C12.0132 2.05762 12.1372 2.15123 12.2707 2.42123C12.4592 2.80148 12.9197 2.95833 13.3 2.76984C13.6802 2.58178 13.8362 2.12127 13.6482 1.74102C13.2626 0.960125 12.6622 0.512512 12.0007 0.512512C11.3397 0.512512 10.7393 0.95975 10.3537 1.74022L7.69486 7.12738L1.75069 7.99181C0.887854 8.11701 0.27585 8.55009 0.0716136 9.17958C-0.133091 9.80944 0.108223 10.5192 0.732275 11.127L5.03318 15.3189L4.01763 21.2394C3.87077 22.0981 4.09333 22.8132 4.62837 23.2022C4.89003 23.3923 5.20292 23.4876 5.54445 23.4876C5.90057 23.4876 6.2879 23.3844 6.68188 23.1785C7.05754 22.9817 7.20234 22.517 7.00514 22.1413C6.80793 21.7657 6.34405 21.6217 5.96797 21.8185Z" fill="#0D4047"/>
</g>
<defs>
<clipPath id="clip0_590_5600">
<rect width="24" height="24" fill="white"/>
</clipPath>
</defs>
</svg>
