<svg width="29" height="31" viewBox="0 0 29 31" fill="none" xmlns="http://www.w3.org/2000/svg">
<g clip-path="url(#clip0_237_317)">
<path d="M14.5 1.25415C6.48992 1.25415 0 7.74407 0 15.7542C0 23.7642 6.48992 30.2542 14.5 30.2542C22.5101 30.2542 29 23.7642 29 15.7542C29 7.74407 22.5101 1.25415 14.5 1.25415ZM14.5 27.4477C8.05101 27.4477 2.80645 22.2031 2.80645 15.7542C2.80645 9.30516 8.05101 4.0606 14.5 4.0606C20.949 4.0606 26.1935 9.30516 26.1935 15.7542C26.1935 22.2031 20.949 27.4477 14.5 27.4477ZM20.6742 18.5957C19.1599 19.081 16.9089 19.3616 14.5 19.3616C12.0911 19.3616 9.84597 19.081 8.32581 18.5957C7.75282 18.4144 7.19153 18.9056 7.29093 19.4902C7.75282 22.2499 11.4597 24.1677 14.5 24.1677C17.5403 24.1677 21.2413 22.2441 21.7091 19.4902C21.8026 18.9173 21.2589 18.4144 20.6742 18.5957ZM7.34939 15.2338C7.29093 15.5963 7.66512 15.8769 7.99254 15.6957L9.82258 14.7427L11.6526 15.6957C11.98 15.8769 12.3542 15.5963 12.2958 15.2338L11.945 13.1933L13.43 11.755C13.6931 11.4919 13.5411 11.0416 13.1786 10.9832L11.1381 10.6908L10.2319 8.84326C10.0623 8.50415 9.58871 8.50415 9.41915 8.84326L8.5129 10.6908L6.47238 10.9832C6.10988 11.0358 5.95202 11.486 6.22097 11.755L7.70605 13.1933L7.34939 15.2338ZM22.5335 10.9832L20.4929 10.6908L19.5867 8.84326C19.4171 8.50415 18.9435 8.50415 18.774 8.84326L17.8677 10.6908L15.8272 10.9832C15.4647 11.0358 15.3069 11.486 15.5758 11.755L17.0609 13.1933L16.7101 15.2338C16.6516 15.5963 17.0258 15.8769 17.3532 15.6957L19.1833 14.7427L21.0133 15.6957C21.3407 15.8769 21.7149 15.5963 21.6565 15.2338L21.3056 13.1933L22.7907 11.755C23.0538 11.486 22.896 11.0416 22.5335 10.9832Z" fill="white"/>
</g>
<defs>
<clipPath id="clip0_237_317">
<rect width="29" height="29.9355" fill="white" transform="translate(0 0.786377)"/>
</clipPath>
</defs>
</svg>
