<svg width="30" height="31" viewBox="0 0 30 31" fill="none" xmlns="http://www.w3.org/2000/svg">
<path fill-rule="evenodd" clip-rule="evenodd" d="M14.2975 4.35039C14.1287 4.54539 13.915 4.84289 13.5875 5.30164L13.3987 5.56914C13.3837 5.58831 13.3691 5.60914 13.355 5.63164C13.1975 5.85539 12.9775 6.16664 12.6462 6.36164C12.315 6.55664 11.9362 6.59664 11.6637 6.62414L11.5887 6.63289L11.2625 6.67039C10.8689 6.70697 10.4769 6.7591 10.0875 6.82664C10.2237 7.05414 10.4437 7.35789 10.7875 7.82414L10.9825 8.09164L11.0287 8.15414C11.195 8.37789 11.42 8.68039 11.5037 9.05164C11.5887 9.42414 11.5162 9.79539 11.4625 10.0666L11.4475 10.1416L11.385 10.4641C11.275 11.0416 11.2062 11.4104 11.1837 11.6716C11.4375 11.6166 11.79 11.5041 12.34 11.3241L12.6525 11.2229L12.7237 11.1991C12.9837 11.1116 13.3437 10.9929 13.7262 11.0316C14.105 11.0716 14.4337 11.2604 14.675 11.3991L14.7412 11.4366L15.0287 11.5991C15.5212 11.8791 15.845 12.0616 16.0837 12.1691C16.1037 11.9091 16.1012 11.5404 16.095 10.9766L16.0912 10.6466L16.0887 10.5704C16.085 10.2941 16.0775 9.91414 16.2275 9.56289C16.3775 9.20914 16.6587 8.95164 16.8612 8.76664L16.9162 8.71664L17.1562 8.49289C17.5775 8.10289 17.8462 7.85039 18.0175 7.65539C17.7762 7.54914 17.4187 7.43039 16.86 7.24789L16.5475 7.14539L16.4737 7.12164C16.21 7.03664 15.8512 6.92164 15.565 6.66789C15.2812 6.41539 15.1237 6.07164 15.0087 5.81789L14.9762 5.74914L14.8362 5.44914C14.6716 5.07572 14.4919 4.70916 14.2975 4.35039ZM13.035 2.95164C13.3475 2.63039 13.8262 2.25789 14.4975 2.32664C15.1625 2.39664 15.56 2.85164 15.805 3.22664C16.0375 3.58039 16.2637 4.06914 16.51 4.60039L16.5375 4.65914L16.6775 4.95914L16.7737 5.16539L16.82 5.25789L16.915 5.29164L17.1287 5.36289L17.4425 5.46539L17.505 5.48539C18.0575 5.66664 18.5675 5.83289 18.9475 6.02289C19.35 6.22289 19.8437 6.56414 19.9912 7.21289C20.1412 7.86664 19.8375 8.38789 19.5562 8.73789C19.2937 9.06914 18.9012 9.43164 18.48 9.82289L18.4312 9.86789L18.1912 10.0904L17.9662 10.3054C17.9645 10.3287 17.9637 10.3596 17.9637 10.3979L17.965 10.6229L17.97 10.9541V11.0191C17.9775 11.6016 17.9837 12.1391 17.9275 12.5579C17.8675 12.9991 17.7025 13.5879 17.12 13.9304C16.5387 14.2716 15.945 14.1304 15.53 13.9691C15.135 13.8166 14.6675 13.5504 14.16 13.2629L14.1037 13.2304L13.8162 13.0679L13.5337 12.9116L13.4462 12.9366L13.2337 13.0054L12.9212 13.1066L12.8587 13.1266C12.3125 13.3054 11.8037 13.4716 11.3875 13.5416C10.9437 13.6166 10.3425 13.6291 9.84246 13.1841C9.34496 12.7416 9.28496 12.1441 9.30371 11.6954C9.32121 11.2716 9.42246 10.7454 9.53121 10.1754L9.54371 10.1116L9.60621 9.78789L9.66246 9.46914L9.60496 9.38539L9.47121 9.20164L9.27496 8.93414L9.23746 8.88164C8.88996 8.41039 8.57121 7.97539 8.37246 7.60039C8.16246 7.20664 7.95371 6.63789 8.21746 6.02164C8.48246 5.39914 9.04246 5.16164 9.47496 5.04664C9.88246 4.93789 10.4137 4.87789 10.9875 4.81414L11.0537 4.80664L11.3787 4.76914L11.6887 4.73164L11.74 4.66289L11.87 4.48164L12.06 4.21414L12.0987 4.16039C12.4325 3.69164 12.7425 3.25539 13.0362 2.95289M28.3112 12.1579C28.3733 12.2643 28.4138 12.3818 28.4304 12.5038C28.4471 12.6259 28.4395 12.75 28.4082 12.8691C28.3768 12.9882 28.3223 13.0999 28.2478 13.198C28.1732 13.296 28.0801 13.3784 27.9737 13.4404C20.8325 17.6041 19.0625 24.3279 19.0625 28.2541C19.0625 28.5028 18.9637 28.7412 18.7879 28.9171C18.6121 29.0929 18.3736 29.1916 18.125 29.1916C17.8763 29.1916 17.6379 29.0929 17.462 28.9171C17.2862 28.7412 17.1875 28.5028 17.1875 28.2541C17.1875 23.8479 19.1675 16.4041 27.0275 11.8191C27.1338 11.7571 27.2514 11.7165 27.3734 11.6999C27.4954 11.6833 27.6195 11.6908 27.7386 11.7222C27.8577 11.7535 27.9695 11.808 28.0675 11.8826C28.1655 11.9571 28.2479 12.0502 28.31 12.1566M14.0075 14.8541C14.2465 14.9225 14.4485 15.0829 14.5693 15.3002C14.69 15.5175 14.7194 15.7739 14.6512 16.0129C14.1925 17.6166 14.0837 19.9429 14.1562 22.2729C14.2275 24.5804 14.4737 26.7929 14.6762 28.1129C14.6986 28.2361 14.6962 28.3626 14.6689 28.4849C14.6416 28.6072 14.5901 28.7228 14.5174 28.8248C14.4447 28.9268 14.3523 29.0132 14.2456 29.079C14.139 29.1447 14.0202 29.1884 13.8964 29.2074C13.7726 29.2264 13.6462 29.2205 13.5247 29.1899C13.4033 29.1593 13.2891 29.1046 13.1891 29.0291C13.0891 28.9537 13.0053 28.8589 12.9425 28.7505C12.8798 28.6421 12.8394 28.5222 12.8237 28.3979C12.5284 26.3877 12.3472 24.3624 12.2812 22.3316C12.2075 19.9641 12.3062 17.3941 12.8487 15.4979C12.917 15.2589 13.0775 15.0568 13.2948 14.9361C13.5121 14.8154 13.7684 14.7859 14.0075 14.8541Z" fill="white"/>
<path d="M6.24996 17.3391C6.24996 17.3391 7.06246 18.2729 7.77871 18.4641C8.49496 18.6579 9.66621 18.2541 9.66621 18.2541C9.66621 18.2541 8.72996 19.0666 8.53871 19.7816C8.34621 20.4979 8.75121 21.6691 8.75121 21.6691C8.75121 21.6691 7.93871 20.7341 7.22246 20.5416C6.50621 20.3504 5.33496 20.7541 5.33496 20.7541C5.33496 20.7541 6.26996 19.9416 6.46121 19.2254C6.65246 18.5091 6.24996 17.3391 6.24996 17.3391Z" stroke="white" stroke-linejoin="round"/>
</svg>
