<svg width="46" height="46" viewBox="0 0 46 46" fill="none" xmlns="http://www.w3.org/2000/svg">
<path d="M15.2113 17.0412C16.0119 15.1156 18.7381 15.1156 19.5388 17.0412L21.815 22.5144L27.7231 22.9869C29.8006 23.1556 30.6444 25.7469 29.06 27.1025L24.56 30.9594L25.9344 36.725C26.4181 38.7519 24.2131 40.355 22.4338 39.2694L17.375 36.1794L12.3163 39.2694C10.5369 40.3569 8.33189 38.7519 8.81564 36.725L10.19 30.9594L5.69001 27.1025C4.10564 25.7469 4.94939 23.1537 7.02689 22.9869L12.9331 22.5144L15.2113 17.0412ZM17.375 19.1619L15.4213 23.8587C15.2558 24.2567 14.9837 24.6013 14.6351 24.8547C14.2864 25.1081 13.8746 25.2605 13.445 25.295L8.37501 25.7L12.2375 29.0094C12.905 29.5812 13.1975 30.4794 12.9931 31.3344L11.8119 36.2806L16.1525 33.6294C16.5206 33.4043 16.9436 33.2853 17.375 33.2853C17.8064 33.2853 18.2294 33.4043 18.5975 33.6294L22.9381 36.2806L21.7569 31.3344C21.6567 30.9148 21.6742 30.4758 21.8075 30.0655C21.9409 29.6553 22.1848 29.2898 22.5125 29.0094L26.375 25.7L21.305 25.295C20.8754 25.2605 20.4636 25.1081 20.115 24.8547C19.7663 24.6013 19.4943 24.2567 19.3288 23.8587L17.375 19.1619ZM25.0194 5.97124C25.6588 4.43187 27.8413 4.43187 28.4806 5.97124L29.3806 8.13124L31.7113 8.31874C33.3725 8.44999 34.0475 10.5256 32.78 11.6112L31.0044 13.1319L31.5481 15.4081C31.9344 17.03 30.17 18.3125 28.7469 17.4425L26.75 16.2237L24.7531 17.4425C23.33 18.3125 21.5656 17.03 21.9519 15.4081L22.4956 13.1319L20.72 11.6112C19.4525 10.5256 20.1256 8.45187 21.7888 8.31687L24.1213 8.12937L25.0194 5.97124ZM27.6481 8.85124L26.75 6.69124L25.85 8.85124C25.7178 9.16937 25.5006 9.44493 25.2221 9.64769C24.9436 9.85044 24.6146 9.97255 24.2713 10.0006L21.9388 10.1881L23.7144 11.7069C23.9767 11.9311 24.1721 12.2234 24.279 12.5516C24.3858 12.8798 24.4 13.2311 24.32 13.5669L23.7763 15.8431L25.7731 14.6244C26.0673 14.4448 26.4053 14.3498 26.75 14.3498C27.0947 14.3498 27.4327 14.4448 27.7269 14.6244L29.7238 15.8431L29.18 13.5669C29.1004 13.2314 29.1147 12.8805 29.2216 12.5527C29.3284 12.2248 29.5236 11.9328 29.7856 11.7087L31.5613 10.1862L29.2306 9.99874C28.8868 9.97151 28.5572 9.84998 28.278 9.64753C27.9988 9.44508 27.7809 9.16955 27.6481 8.85124ZM35.2756 19.1937C35.3511 19.0322 35.4711 18.8955 35.6216 18.7997C35.772 18.7039 35.9467 18.6531 36.125 18.6531C36.3034 18.6531 36.478 18.7039 36.6284 18.7997C36.7789 18.8955 36.8989 19.0322 36.9744 19.1937L37.7713 20.9C37.864 21.0996 38.0239 21.2602 38.2231 21.3537L39.9294 22.1506C40.091 22.2261 40.2277 22.3461 40.3234 22.4966C40.4192 22.647 40.4701 22.8216 40.4701 23C40.4701 23.1783 40.4192 23.353 40.3234 23.5034C40.2277 23.6539 40.091 23.7739 39.9294 23.8494L38.2231 24.6462C38.0242 24.7393 37.8643 24.8992 37.7713 25.0981L36.9744 26.8044C36.8989 26.9659 36.7789 27.1026 36.6284 27.1984C36.478 27.2942 36.3034 27.345 36.125 27.345C35.9467 27.345 35.772 27.2942 35.6216 27.1984C35.4711 27.1026 35.3511 26.9659 35.2756 26.8044L34.4788 25.0981C34.3857 24.8992 34.2258 24.7393 34.0269 24.6462L32.3206 23.8494C32.1591 23.7739 32.0224 23.6539 31.9266 23.5034C31.8308 23.353 31.78 23.1783 31.78 23C31.78 22.8216 31.8308 22.647 31.9266 22.4966C32.0224 22.3461 32.1591 22.2261 32.3206 22.1506L34.0269 21.3537C34.2258 21.2607 34.3857 21.1008 34.4788 20.9019L35.2756 19.1937Z" fill="white"/>
</svg>
